<svg width="80" height="80" viewBox="0 0 80 80" fill="none" xmlns="http://www.w3.org/2000/svg">
<rect width="80" height="80" fill="white"/>
<rect x="16" y="16" width="8" height="8" fill="black"/>
<rect x="16" y="26" width="8" height="8" fill="black"/>
<rect x="16" y="36" width="8" height="8" fill="black"/>
<rect x="16" y="46" width="8" height="8" fill="black"/>
<rect x="16" y="56" width="8" height="8" fill="black"/>
<rect x="26" y="16" width="8" height="8" fill="black"/>
<rect x="36" y="26" width="8" height="8" fill="black"/>
<rect x="36" y="36" width="8" height="8" fill="black"/>
<rect x="36" y="46" width="8" height="8" fill="black"/>
<rect x="46" y="16" width="8" height="8" fill="black"/>
<rect x="56" y="26" width="8" height="8" fill="black"/>
<rect x="56" y="36" width="8" height="8" fill="black"/>
<rect x="56" y="46" width="8" height="8" fill="black"/>
<rect x="56" y="56" width="8" height="8" fill="black"/>
</svg>
