<svg width="96" height="96" viewBox="0 0 96 96" fill="none" xmlns="http://www.w3.org/2000/svg">
<rect width="96" height="96" fill="#008844"/>
<rect x="24" y="24" width="8" height="8" fill="white"/>
<rect x="24" y="34" width="8" height="8" fill="white"/>
<rect x="24" y="44" width="8" height="8" fill="white"/>
<rect x="24" y="54" width="8" height="8" fill="white"/>
<rect x="24" y="64" width="8" height="8" fill="white"/>
<rect x="34" y="24" width="8" height="8" fill="white"/>
<rect x="44" y="34" width="8" height="8" fill="white"/>
<rect x="44" y="44" width="8" height="8" fill="white"/>
<rect x="44" y="54" width="8" height="8" fill="white"/>
<rect x="54" y="24" width="8" height="8" fill="white"/>
<rect x="64" y="34" width="8" height="8" fill="white"/>
<rect x="64" y="44" width="8" height="8" fill="white"/>
<rect x="64" y="54" width="8" height="8" fill="white"/>
<rect x="64" y="64" width="8" height="8" fill="white"/>
</svg>
