<svg width="1024" height="1024" viewBox="0 0 1024 1024" fill="none" xmlns="http://www.w3.org/2000/svg">
<rect width="1024" height="1024" rx="256" fill="#EEEEEE"/>
<path d="M293.44 683.584C286.272 683.584 280.64 681.536 276.544 677.44C272.448 673.344 270.4 667.371 270.4 659.52V450.624C270.4 442.773 272.448 436.971 276.544 433.216C280.64 429.12 286.272 427.072 293.44 427.072C300.608 427.072 306.069 429.12 309.824 433.216C313.92 436.971 315.968 442.773 315.968 450.624V494.144L310.336 484.928C316.821 466.155 327.232 451.648 341.568 441.408C356.245 431.168 373.653 426.048 393.792 426.048C414.955 426.048 432.021 431.168 444.992 441.408C457.963 451.307 466.667 466.496 471.104 486.976H463.936C470.08 468.203 481.003 453.355 496.704 442.432C512.747 431.509 531.349 426.048 552.512 426.048C571.285 426.048 586.645 429.803 598.592 437.312C610.88 444.48 620.096 455.403 626.24 470.08C632.384 484.416 635.456 502.848 635.456 525.376V659.52C635.456 667.371 633.408 673.344 629.312 677.44C625.216 681.536 619.584 683.584 612.416 683.584C604.907 683.584 599.104 681.536 595.008 677.44C590.912 673.344 588.864 667.371 588.864 659.52V527.424C588.864 505.579 585.109 489.536 577.6 479.296C570.091 469.056 557.461 463.936 539.712 463.936C520.256 463.936 504.725 470.763 493.12 484.416C481.856 497.728 476.224 516.16 476.224 539.712V659.52C476.224 667.371 474.176 673.344 470.08 677.44C466.325 681.536 460.693 683.584 453.184 683.584C445.675 683.584 439.872 681.536 435.776 677.44C431.68 673.344 429.632 667.371 429.632 659.52V527.424C429.632 505.579 425.877 489.536 418.368 479.296C410.859 469.056 398.229 463.936 380.48 463.936C361.024 463.936 345.493 470.763 333.888 484.416C322.624 497.728 316.992 516.16 316.992 539.712V659.52C316.992 675.563 309.141 683.584 293.44 683.584ZM732.904 682.048C724.029 682.048 716.691 679.147 710.888 673.344C705.085 667.541 702.184 660.203 702.184 651.328C702.184 642.453 705.085 635.285 710.888 629.824C716.691 624.363 724.029 621.632 732.904 621.632C742.461 621.632 749.8 624.363 754.92 629.824C760.381 635.285 763.112 642.453 763.112 651.328C763.112 660.203 760.381 667.541 754.92 673.344C749.8 679.147 742.461 682.048 732.904 682.048Z" fill="#111111"/>
</svg>
