<svg width="64" height="64" viewBox="0 0 64 64" fill="none" xmlns="http://www.w3.org/2000/svg">
<rect width="64" height="64" fill="white"/>
<rect x="8" y="8" width="8" height="8" fill="black"/>
<rect x="8" y="18" width="8" height="8" fill="black"/>
<rect x="8" y="28" width="8" height="8" fill="black"/>
<rect x="8" y="38" width="8" height="8" fill="black"/>
<rect x="8" y="48" width="8" height="8" fill="black"/>
<rect x="18" y="8" width="8" height="8" fill="black"/>
<rect x="28" y="18" width="8" height="8" fill="black"/>
<rect x="28" y="28" width="8" height="8" fill="black"/>
<rect x="28" y="38" width="8" height="8" fill="black"/>
<rect x="38" y="8" width="8" height="8" fill="black"/>
<rect x="48" y="18" width="8" height="8" fill="black"/>
<rect x="48" y="28" width="8" height="8" fill="black"/>
<rect x="48" y="38" width="8" height="8" fill="black"/>
<rect x="48" y="48" width="8" height="8" fill="black"/>
</svg>
