<svg width="128" height="128" viewBox="0 0 128 128" fill="none" xmlns="http://www.w3.org/2000/svg">
<rect x="16" y="16" width="96" height="96" fill="#008844"/>
<rect x="40" y="40" width="8" height="8" fill="white"/>
<rect x="40" y="50" width="8" height="8" fill="white"/>
<rect x="40" y="60" width="8" height="8" fill="white"/>
<rect x="40" y="70" width="8" height="8" fill="white"/>
<rect x="40" y="80" width="8" height="8" fill="white"/>
<rect x="50" y="40" width="8" height="8" fill="white"/>
<rect x="60" y="50" width="8" height="8" fill="white"/>
<rect x="60" y="60" width="8" height="8" fill="white"/>
<rect x="60" y="70" width="8" height="8" fill="white"/>
<rect x="70" y="40" width="8" height="8" fill="white"/>
<rect x="80" y="50" width="8" height="8" fill="white"/>
<rect x="80" y="60" width="8" height="8" fill="white"/>
<rect x="80" y="70" width="8" height="8" fill="white"/>
<rect x="80" y="80" width="8" height="8" fill="white"/>
</svg>
