<svg width="1024" height="1024" viewBox="0 0 1024 1024" fill="none" xmlns="http://www.w3.org/2000/svg">
<path d="M365.68 691.64L93.68 568.12C79.6 562.147 72.56 552.547 72.56 539.32C72.56 532.493 74.2667 526.733 77.68 522.04C81.52 517.347 86.8533 513.507 93.68 510.52L365.68 387C371.227 384.44 375.92 383.8 379.76 385.08C384.027 386.36 387.44 388.707 390 392.12C392.56 395.107 393.84 398.733 393.84 403C394.267 407.267 393.627 411.32 391.92 415.16C390.213 418.573 386.587 421.56 381.04 424.12L94.96 552.12V526.52L381.04 654.52C386.587 657.08 390.213 660.28 391.92 664.12C393.627 667.533 394.267 671.373 393.84 675.64C393.84 679.907 392.56 683.747 390 687.16C387.44 690.147 384.027 692.28 379.76 693.56C375.92 694.413 371.227 693.773 365.68 691.64ZM456.95 744.76C454.817 750.307 451.83 754.36 447.99 756.92C444.577 759.48 440.523 760.76 435.83 760.76C431.137 760.76 426.87 759.48 423.03 756.92C419.617 754.787 417.057 751.587 415.35 747.32C413.643 743.053 413.643 738.147 415.35 732.6L567.67 260.28C569.803 254.733 572.79 250.68 576.63 248.12C580.47 245.56 584.523 244.28 588.79 244.28C593.483 244.28 597.537 245.56 600.95 248.12C604.79 250.253 607.35 253.453 608.63 257.72C610.337 261.987 610.337 266.893 608.63 272.44L456.95 744.76ZM659.32 691.64C654.2 693.773 649.507 694.413 645.24 693.56C640.973 692.28 637.56 690.147 635 687.16C632.867 683.747 631.587 679.907 631.16 675.64C630.733 671.373 631.587 667.533 633.72 664.12C635.853 660.28 639.267 657.08 643.96 654.52L930.68 526.52V552.12L643.96 424.12C639.267 421.56 635.853 418.573 633.72 415.16C631.587 411.32 630.733 407.267 631.16 403C631.587 398.733 632.867 395.107 635 392.12C637.56 388.707 640.973 386.36 645.24 385.08C649.507 383.8 654.2 384.44 659.32 387L931.96 510.52C945.613 516.493 952.44 526.093 952.44 539.32C952.44 545.72 950.733 551.48 947.32 556.6C943.907 561.293 938.787 565.133 931.96 568.12L659.32 691.64Z" fill="#0055BB"/>
</svg>
