<svg width="64" height="64" viewBox="0 0 64 64" fill="none" xmlns="http://www.w3.org/2000/svg">
<path d="M21.2929 31.2929C20.9024 31.6834 20.9024 32.3166 21.2929 32.7071L27.6569 39.0711C28.0474 39.4616 28.6805 39.4616 29.0711 39.0711C29.4616 38.6805 29.4616 38.0474 29.0711 37.6569L23.4142 32L29.0711 26.3431C29.4616 25.9526 29.4616 25.3195 29.0711 24.9289C28.6805 24.5384 28.0474 24.5384 27.6569 24.9289L21.2929 31.2929ZM38 31L22 31V33H38V31Z" fill="white"/>
<path d="M42 36C42 33.7909 40.2091 32 38 32" stroke="white" stroke-width="2"/>
<path d="M41 38C41 38.5523 41.4477 39 42 39C42.5523 39 43 38.5523 43 38H41ZM41 36V38H43V36H41Z" fill="white"/>
</svg>
