<svg width="1024" height="1024" viewBox="0 0 1024 1024" fill="none" xmlns="http://www.w3.org/2000/svg">
<path d="M360.96 633.736L145.92 537.992C133.973 532.531 128 523.827 128 511.88C128 506.077 129.536 501.128 132.608 497.032C135.68 492.936 140.117 489.523 145.92 486.792L360.96 391.048C365.397 389 369.493 388.488 373.248 389.512C377.003 390.536 379.904 392.413 381.952 395.144C384 397.875 385.195 401.117 385.536 404.872C385.877 408.627 385.195 412.211 383.488 415.624C381.781 419.037 378.709 421.597 374.272 423.304L146.432 524.168V500.616L374.272 601.48C378.709 603.187 381.781 605.747 383.488 609.16C385.195 612.573 385.877 616.157 385.536 619.912C385.195 623.325 384 626.568 381.952 629.64C379.904 632.371 377.003 634.248 373.248 635.272C369.493 636.296 365.397 635.784 360.96 633.736Z" fill="#EEEEEE"/>
<path d="M663.088 633.736C658.309 635.784 654.043 636.296 650.288 635.272C646.875 634.248 643.973 632.371 641.584 629.64C639.536 626.568 638.341 623.325 638 619.912C638 616.157 638.853 612.573 640.56 609.16C642.267 605.747 645.339 603.187 649.776 601.48L877.616 500.616V524.168L649.776 423.304C645.339 421.597 642.267 419.037 640.56 415.624C638.853 412.211 638 408.627 638 404.872C638.341 401.117 639.536 397.875 641.584 395.144C643.973 392.413 646.875 390.536 650.288 389.512C654.043 388.488 658.309 389 663.088 391.048L877.616 486.792C889.904 491.912 896.048 500.275 896.048 511.88C896.048 518.024 894.512 523.315 891.44 527.752C888.368 531.848 883.76 535.261 877.616 537.992L663.088 633.736Z" fill="#EEEEEE"/>
<path d="M469.376 705.384C467.669 710.504 465.109 714.088 461.696 716.136C458.624 718.184 455.04 719.208 450.944 719.208C446.848 719.208 443.093 718.184 439.68 716.136C436.608 714.429 434.389 711.699 433.024 707.944C431.659 704.189 431.659 699.581 433.024 694.12L553.856 318.824C555.563 314.045 558.123 310.632 561.536 308.584C564.949 306.195 568.533 305 572.288 305C576.384 305 580.139 306.024 583.552 308.072C586.965 310.12 589.355 313.021 590.72 316.776C592.085 320.189 592.085 324.627 590.72 330.088L469.376 705.384Z" fill="#EEEEEE"/>
</svg>
